<?xml version="1.0" standalone="no"?><!DOCTYPE svg PUBLIC "-//W3C//DTD SVG 1.1//EN" "http://www.w3.org/Graphics/SVG/1.1/DTD/svg11.dtd"><svg t="1610423158267" class="icon" viewBox="0 0 1024 1024" version="1.1" xmlns="http://www.w3.org/2000/svg" p-id="3896" xmlns:xlink="http://www.w3.org/1999/xlink" width="200" height="200"><defs><style type="text/css"></style></defs><path d="M498.916519 433.206446c13.795191 6.374174 30.255071 0.364297 36.660968-13.415544 6.470365-13.858636 0.445138-30.318516-13.351076-36.69269-13.859659-6.438643-30.255071-0.491187-36.693714 13.351076C479.110427 410.260851 485.056859 426.751431 498.916519 433.206446z" p-id="3897"></path><path d="M440.307679 418.886299l-30.129204 10.783601 9.070586 25.418926 30.541597-10.862395c5.13802 8.467859 11.861142 15.508205 19.599384 21.10569l-15.31787 30.350239 24.166399 12.163017 15.603373-31.048133c8.847505 2.251274 18.203594 2.775206 27.52796 1.379417l9.79918 27.496238 25.434276-9.085936-9.79918-27.496238c9.830903-5.819542 17.665335-14.001899 23.531949-23.421432l29.240975 14.921851 12.272511-24.02416-31.841196-16.253172c1.364067-7.437389 1.808182-15.048741 0.76134-22.786982l26.006304-9.403161-9.134031-25.323758-25.562189 9.133008c-4.408403-7.943926-10.116405-14.715143-16.744359-20.329001l14.968923-31.7931-24.356734-11.56029-14.176884 30.112832c-10.401908-3.488451-21.469987-4.836145-32.697703-3.139503l-12.018731-33.776268-25.467021 9.085936 12.051477 33.728172c-7.896854 4.693906-14.588253 10.830673-19.980054 17.919115l-31.650861-16.8559-12.748349 23.785729 32.443923 17.300015C438.848445 396.766512 438.310186 407.786497 440.307679 418.886299zM490.512105 351.60494c30.096459-10.655687 62.857607 5.423523 73.671906 35.790134 10.8143 30.413684-4.375657 63.667042-34.409694 74.322729-29.780257 10.640338-62.826907-5.3918-73.641207-35.790134C445.287087 395.59278 460.731848 362.228905 490.512105 351.60494z" p-id="3898"></path><path d="M788.150946 606.596472 654.014946 227.134067l-0.110517 0-11.971659 0L376.181173 227.134067l-10.005888 0-2.045589 0L224.301044 622.675682c-8.673543 14.937201-13.716396 32.253588-13.716396 50.774407 0 56.039317 45.430702 101.486392 101.485369 101.486392l399.855874 0c56.054667 0 101.486392-45.447075 101.486392-101.486392C813.412282 647.825478 803.834136 624.452141 788.150946 606.596472zM372.169813 238.504022l273.789667 0 124.495432 352.10943c-16.556071-11.703553-36.710087-18.648732-58.529021-18.648732L312.070017 571.96472c-25.545816 0-48.823985 9.514701-66.679655 25.086351L372.169813 238.504022zM687.934476 762.758114 336.047104 762.758114c-49.299823 0-89.307002-39.99183-89.307002-89.307002 0-49.347918 40.007179-89.307002 89.307002-89.307002l351.887372 0c49.315172 0 89.307002 39.960107 89.307002 89.307002C777.241478 722.766284 737.249649 762.758114 687.934476 762.758114z" p-id="3899"></path><path d="M389.548622 651.123594c-12.32163 0-22.326495 9.990538-22.326495 22.326495s10.005888 22.326495 22.326495 22.326495 22.326495-9.990538 22.326495-22.326495S401.870252 651.123594 389.548622 651.123594z" p-id="3900"></path><path d="M511.998465 651.123594c-12.33698 0-22.326495 9.990538-22.326495 22.326495s9.990538 22.326495 22.326495 22.326495 22.326495-9.990538 22.326495-22.326495S524.335445 651.123594 511.998465 651.123594z" p-id="3901"></path><path d="M631.576911 651.123594c-12.33698 0-22.326495 9.990538-22.326495 22.326495s9.990538 22.326495 22.326495 22.326495 22.326495-9.990538 22.326495-22.326495S643.91389 651.123594 631.576911 651.123594z" p-id="3902"></path></svg>